<svg id="Calque_1" data-name="Calque 1" xmlns="http://www.w3.org/2000/svg" viewBox="0 0 393.15 139.19"><defs><style>.cls-1{fill:#e91e63;}</style></defs><title>blobs</title><path class="cls-1" d="M116.91,39.42c2.31,9.52-9.82,22.62-20.17,35.31s-18.95,25-30,27.13S42.2,95.93,29.15,84.22,3.5,57.11,3.56,40.34,16.3,5.48,31.33,1.54,63.78,7.89,80.83,16,114.62,29.94,116.91,39.42Z" transform="translate(-3.56 -0.68)"/><path class="cls-1" d="M296.67,138.19c-21.66-2.19-50.54-5.93-54.77-18S258.09,88,274.09,66.39s27.57-44.5,44.19-48.68S356.56,28.13,373,46.58s27.6,40.84,22.41,57.35-26.71,27.15-44.7,32.16S318.29,140.41,296.67,138.19Z" transform="translate(-3.56 -0.68)"/></svg>